HIERARCHY
ROOT Hips
{
	OFFSET -14.64140 90.27770 -84.91600
	CHANNELS 6 Xposition Yposition Zposition Zrotation Xrotation Yrotation
	JOINT Spine
	{
		OFFSET 0.00000 13.20850 -1.60436
		CHANNELS 3 Zrotation Xrotation Yrotation
		JOINT Spine1
		{
			OFFSET 0.00000 8.61716 0.00000
			CHANNELS 3 Zrotation Xrotation Yrotation
			JOINT Spine2
			{
				OFFSET 0.00000 8.61717 0.00000
				CHANNELS 3 Zrotation Xrotation Yrotation
				JOINT Spine3
				{
					OFFSET 0.00000 8.61717 0.00000
					CHANNELS 3 Zrotation Xrotation Yrotation
					JOINT Neck
					{
						OFFSET 0.00000 11.07920 1.10792
						CHANNELS 3 Zrotation Xrotation Yrotation
						JOINT Neck1
						{
							OFFSET 0.00000 7.08032 0.00000
							CHANNELS 3 Zrotation Xrotation Yrotation
							JOINT Head
							{
								OFFSET 0.00000 7.08031 0.00000
								CHANNELS 3 Zrotation Xrotation Yrotation
								End site
								{
									OFFSET 0.00000 0.00000 0.00000
								}
							}
						}
					}
					JOINT RightShoulder
					{
						OFFSET -0.01000 7.91373 5.19711
						CHANNELS 3 Zrotation Xrotation Yrotation
						JOINT RightArm
						{
							OFFSET -18.41580 0.00000 0.00000
							CHANNELS 3 Zrotation Xrotation Yrotation
							JOINT RightForeArm
							{
								OFFSET -29.11090 0.00000 0.00000
								CHANNELS 3 Zrotation Xrotation Yrotation
								JOINT RightHand
								{
									OFFSET -24.65040 0.00000 0.00000
									CHANNELS 3 Zrotation Xrotation Yrotation
									JOINT RightHandThumb1
									{
										OFFSET -5.35114 -0.85590 3.97906
										CHANNELS 3 Zrotation Xrotation Yrotation
										JOINT RightHandThumb2
										{
											OFFSET -4.52789 0.00000 0.00000
											CHANNELS 3 Zrotation Xrotation Yrotation
											JOINT RightHandThumb3
											{
												OFFSET -2.46976 0.00000 0.00000
												CHANNELS 3 Zrotation Xrotation Yrotation
												End site
												{
													OFFSET 0.00000 0.00000 0.00000
												}
											}
										}
									}
									JOINT RightHandIndex1
									{
										OFFSET -14.26970 0.00000 2.88139
										CHANNELS 3 Zrotation Xrotation Yrotation
										JOINT RightHandIndex2
										{
											OFFSET -5.48836 0.00000 0.00000
											CHANNELS 3 Zrotation Xrotation Yrotation
											JOINT RightHandIndex3
											{
												OFFSET -3.01859 0.00000 0.00000
												CHANNELS 3 Zrotation Xrotation Yrotation
												End site
												{
													OFFSET 0.00000 0.00000 0.00000
												}
											}
										}
									}
									JOINT RightHandMiddle1
									{
										OFFSET -14.26970 0.00000 -0.09147
										CHANNELS 3 Zrotation Xrotation Yrotation
										JOINT RightHandMiddle2
										{
											OFFSET -6.17441 0.00000 0.00000
											CHANNELS 3 Zrotation Xrotation Yrotation
											JOINT RightHandMiddle3
											{
												OFFSET -3.56743 0.00000 0.00000
												CHANNELS 3 Zrotation Xrotation Yrotation
												End site
												{
													OFFSET 0.00000 0.00000 0.00000
												}
											}
										}
									}
									JOINT RightHandRing1
									{
										OFFSET -12.69180 0.00000 -3.06433
										CHANNELS 3 Zrotation Xrotation Yrotation
										JOINT RightHandRing2
										{
											OFFSET -5.62556 0.00000 0.00000
											CHANNELS 3 Zrotation Xrotation Yrotation
											JOINT RightHandRing3
											{
												OFFSET -3.56744 0.00000 0.00000
												CHANNELS 3 Zrotation Xrotation Yrotation
												End site
												{
													OFFSET 0.00000 0.00000 0.00000
												}
											}
										}
									}
									JOINT RightHandPinky1
									{
										OFFSET -11.11390 0.00000 -6.03719
										CHANNELS 3 Zrotation Xrotation Yrotation
										JOINT RightHandPinky2
										{
											OFFSET -4.52789 0.00000 0.00000
											CHANNELS 3 Zrotation Xrotation Yrotation
											JOINT RightHandPinky3
											{
												OFFSET -2.46976 0.00000 0.00000
												CHANNELS 3 Zrotation Xrotation Yrotation
												End site
												{
													OFFSET 0.00000 0.00000 0.00000
												}
											}
										}
									}
								}
							}
						}
					}
					JOINT LeftShoulder
					{
						OFFSET 0.01000 7.91373 5.19711
						CHANNELS 3 Zrotation Xrotation Yrotation
						JOINT LeftArm
						{
							OFFSET 18.41580 0.00000 0.00000
							CHANNELS 3 Zrotation Xrotation Yrotation
							JOINT LeftForeArm
							{
								OFFSET 29.11090 0.00000 0.00000
								CHANNELS 3 Zrotation Xrotation Yrotation
								JOINT LeftHand
								{
									OFFSET 24.65040 0.00000 0.00000
									CHANNELS 3 Zrotation Xrotation Yrotation
									JOINT LeftHandThumb1
									{
										OFFSET 5.35114 -0.85590 3.97906
										CHANNELS 3 Zrotation Xrotation Yrotation
										JOINT LeftHandThumb2
										{
											OFFSET 4.52789 0.00000 0.00000
											CHANNELS 3 Zrotation Xrotation Yrotation
											JOINT LeftHandThumb3
											{
												OFFSET 2.46977 0.00000 0.00000
												CHANNELS 3 Zrotation Xrotation Yrotation
												End site
												{
													OFFSET 0.00000 0.00000 0.00000
												}
											}
										}
									}
									JOINT LeftHandIndex1
									{
										OFFSET 14.26970 0.00000 2.88139
										CHANNELS 3 Zrotation Xrotation Yrotation
										JOINT LeftHandIndex2
										{
											OFFSET 5.48836 0.00000 0.00000
											CHANNELS 3 Zrotation Xrotation Yrotation
											JOINT LeftHandIndex3
											{
												OFFSET 3.01859 0.00000 0.00000
												CHANNELS 3 Zrotation Xrotation Yrotation
												End site
												{
													OFFSET 0.00000 0.00000 0.00000
												}
											}
										}
									}
									JOINT LeftHandMiddle1
									{
										OFFSET 14.26970 0.00000 -0.09147
										CHANNELS 3 Zrotation Xrotation Yrotation
										JOINT LeftHandMiddle2
										{
											OFFSET 6.17440 0.00000 0.00000
											CHANNELS 3 Zrotation Xrotation Yrotation
											JOINT LeftHandMiddle3
											{
												OFFSET 3.56744 0.00000 0.00000
												CHANNELS 3 Zrotation Xrotation Yrotation
												End site
												{
													OFFSET 0.00000 0.00000 0.00000
												}
											}
										}
									}
									JOINT LeftHandRing1
									{
										OFFSET 12.69180 0.00000 -3.06433
										CHANNELS 3 Zrotation Xrotation Yrotation
										JOINT LeftHandRing2
										{
											OFFSET 5.62556 0.00000 0.00000
											CHANNELS 3 Zrotation Xrotation Yrotation
											JOINT LeftHandRing3
											{
												OFFSET 3.56744 0.00000 0.00000
												CHANNELS 3 Zrotation Xrotation Yrotation
												End site
												{
													OFFSET 0.00000 0.00000 0.00000
												}
											}
										}
									}
									JOINT LeftHandPinky1
									{
										OFFSET 11.11390 0.00000 -6.03719
										CHANNELS 3 Zrotation Xrotation Yrotation
										JOINT LeftHandPinky2
										{
											OFFSET 4.52789 0.00000 0.00000
											CHANNELS 3 Zrotation Xrotation Yrotation
											JOINT LeftHandPinky3
											{
												OFFSET 2.46976 0.00000 0.00000
												CHANNELS 3 Zrotation Xrotation Yrotation
												End site
												{
													OFFSET 0.00000 0.00000 0.00000
												}
											}
										}
									}
								}
							}
						}
					}
					JOINT pCube4
					{
						OFFSET 0.00000 10.91090 1.10792
						CHANNELS 3 Zrotation Xrotation Yrotation
						End site
						{
							OFFSET 0.00000 0.00000 0.00000
						}
					}
				}
			}
		}
	}
	JOINT RightUpLeg
	{
		OFFSET -9.98441 0.00000 0.00000
		CHANNELS 3 Zrotation Xrotation Yrotation
		JOINT RightLeg
		{
			OFFSET 0.00000 -42.11790 0.00000
			CHANNELS 3 Zrotation Xrotation Yrotation
			JOINT RightFoot
			{
				OFFSET 0.00000 -45.00020 -0.00001
				CHANNELS 3 Zrotation Xrotation Yrotation
				JOINT RightForeFoot
				{
					OFFSET 0.00000 -3.74820 0.00000
					CHANNELS 3 Zrotation Xrotation Yrotation
					JOINT RightToeBase
					{
						OFFSET 0.00000 0.06325 14.43120
						CHANNELS 3 Zrotation Xrotation Yrotation
						End site
						{
							OFFSET 0.00000 0.00000 0.00000
						}
					}
				}
			}
		}
	}
	JOINT LeftUpLeg
	{
		OFFSET 9.98441 0.00000 0.00000
		CHANNELS 3 Zrotation Xrotation Yrotation
		JOINT LeftLeg
		{
			OFFSET 0.00000 -42.11800 0.00000
			CHANNELS 3 Zrotation Xrotation Yrotation
			JOINT LeftFoot
			{
				OFFSET 0.00000 -45.00070 0.00000
				CHANNELS 3 Zrotation Xrotation Yrotation
				JOINT LeftForeFoot
				{
					OFFSET 0.00000 -3.74824 0.00000
					CHANNELS 3 Zrotation Xrotation Yrotation
					JOINT LeftToeBase
					{
						OFFSET 0.00000 0.06325 14.43110
						CHANNELS 3 Zrotation Xrotation Yrotation
						End site
						{
							OFFSET 0.00000 0.00000 0.00000
						}
					}
				}
			}
		}
	}
}
MOTION
Frames: 4
Frame Time: 0.050000
-0.040404954775236965 -0.0040192431257408 -0.03511308969240575 0.034202878839177914 0.010085979612034656 -0.02613387058974813 -3.613008928119544 7.313689657459652 -0.7387599938247905 -0.6083395425941464 2.9810446776266764 0.38195615109576864 -0.8286213967437666 0.27589073898566085 -1.9022947193340658 -0.30561097783127344 0.41416828667670913 -1.030231499553314 -0.5257221002403122 8.70540285521989 0.4043603520665681 -0.18402981257029694 -0.6779532229875431 -1.4886840338122174 -0.28237518473918355 -14.281297141511583 -0.04123915399097111 4.089200308700575 -0.11197678309246435 -10.39027907912792 70.71943948775575 -7.276668122337995 30.96627727212603 39.28979001342436 15.403808758304054 103.85417053560242 21.020065597940224 -0.04346047053036502 -12.064027282232848 4.4908974215439565 -0.10730780924360074 -1.5619714664139506 -0.036983345129194184 0.04165743212124729 -56.267517718360466 -0.0022419532303146754 -0.04504750365166835 -56.184635677791825 -38.81876508181189 -0.008349355483596442 0.023467201806670404 -0.022894839456085725 0.02408932723567828 0.012720947172867765 0.032336327636656184 -0.030803024885758125 0.04865441855463634 -36.725546408863025 0.022783062776257516 0.0057839477527778325 0.0053988271899490835 -0.0352232093763234 0.007839467218288331 -0.012033463100623592 -0.012042042853586923 -0.004305445267999203 -19.751431234558176 -0.022213248678753104 0.03733488441318402 -0.01941525745460538 -0.029223186240172262 -0.011369214245575058 -0.001041750936134793 0.00019744207084562278 -0.003476236027518312 24.05420942748619 0.02585920597826467 -0.02589964900343673 28.83853058258291 -0.016491221803849116 -0.0031124889152340115 28.881161173955743 0.026013547269442945 -0.012178481964286763 -0.8829395755507666 0.3770019886213982 8.873055280397374 -59.663343912765114 16.62441209326571 -37.2117177456511 -25.111267990504217 12.813864294843071 -101.87247301823119 -17.218826219098073 1.1423466036244978 -1.8494977626558828 -0.5182981110988156 0.07477616694966677 -8.128163985361251 -0.00621920637704593 0.013754620801201786 44.53434784351282 0.021592851999139344 -0.006025454408735656 44.611670070106214 12.504906390505381 0.006780254910011597 0.021360426188285087 -0.0007595728438836898 -0.04669433108082269 0.01918362545325824 -0.03232522087593096 0.0005417654097962033 0.025162972721390835 11.141589305343714 0.0009533371126350742 -0.004827042362134186 -0.03341981412023579 -0.026560284899824406 -0.04189011973550226 0.003907250139876131 0.015787207239659935 -0.02325850390017897 4.811533502887261 0.03414424183339583 0.0037114625979330295 0.02440304372206915 0.010946236602046447 0.03440075109106514 -0.011806598147785683 -0.007613268504246397 0.03439765291464786 -5.624801178260674 0.04584728897426265 0.010830867244032335 -6.72786605619779 -0.008104838238935224 0.04616579425848752 -6.764229378618142 0.011356557111268087 0.0005861876008384961 0.049441911032556775 -0.004583484919918841 -0.02766614607101618 8.089335229412052 3.5114579836590303 -19.246195931743667 0.02525457365317809 10.371838252844602 0.007430999686826662 -5.666648167301006 -15.670953892732438 3.154707635397529 0.0017717324298225665 0.014748406375523458 0.009279224358604145 0.01117483998746004 4.688860552169649 0.027375486798859466 12.474838877027542 -8.231823521777168 6.83689112821547 0.008888486914507027 46.38549984017047 -0.04030019001487208 -4.2887590675889955 -14.745109245749664 -3.8448882136192646 -0.016124879859969226 -0.027805818140372897 0.021913331491837502 0.0020385639318835345 -10.787223055683377 0.027177122723659825 
0.01745858014554225 -0.014841009242258396 -0.029680478386634027 0.032983552479745555 0.029133788014292547 0.0023660913040957775 -3.508767360258965 7.424482474820552 -0.6712843873753814 -0.6024471717593547 2.9468535673395184 0.34053848981069645 -0.7986181378353787 0.34080852496536845 -1.9331197044365418 -0.24844260612396712 0.4431940238391822 -1.0752289973007458 -0.5384334692597169 8.737224472532672 0.39079948240191154 -0.22371944894678053 -0.6592353700537419 -1.4260900574485904 -0.35284189181976755 -14.42396886367771 0.00886232431280919 4.1218683838709165 -0.19863662321207548 -10.40502108658123 70.89472451128167 -6.984653777360214 31.66360417218125 43.01093513433639 16.212868801283854 102.93412864992914 21.191046403206297 -0.013444853354366092 -12.626237706039635 4.571017582860533 -0.11895603119506339 -1.5914207653277712 0.01803648946697679 0.02226526716818033 -56.24289601971996 0.019464469099640946 -0.04358078504391471 -56.2422326888858 -38.81324421060775 -0.03637427135178995 -0.0013251594414117663 -0.021678457465351863 0.006440900607642653 -0.026097340682331514 0.001992707733233146 0.011136603588148082 -0.03492066965446599 -36.65438493848522 0.005415082719259378 0.037420798078391194 -0.0013751668410264446 -0.030848528492426905 -0.005872775806902476 -0.014289210897943737 -0.031048345312753935 -0.03575668786194354 -19.75710677755286 0.03964901626877599 -0.04197757503134059 0.019668876420732374 -0.02565404201328533 -0.0012360566144538512 -0.017925736975310986 -0.014344515352539297 0.0029965835781688523 24.044693595989813 0.029351495672776343 -0.04012907514698975 28.827558027146377 0.013246655197756953 -0.032532537353213 28.860232812710045 0.035684338061375394 -0.03166275420709822 -0.7892678206578465 0.4252180673715453 8.772444053683008 -58.72509914644255 17.435771947366387 -38.64268980737951 -26.06127669803874 14.121692596626108 -100.52972654636127 -18.57024969882668 1.4838285110189549 -1.9881784847539212 -0.49921180147578903 0.06591408764849828 -8.106984887634754 -0.006335382785785135 0.012544369761284707 44.58614436292248 0.04111021505282899 -0.04325496262138291 44.58070830967005 12.43941341794188 -0.01283911258782316 0.04848668359936541 -0.046437625029812725 0.011834651652581239 0.0114218732457805 -0.02336147094008333 0.0379449541532265 -0.036434043364038715 11.079786147252104 -0.024714691187514057 0.04274705778514884 0.012686950120001445 0.005176663030400923 0.008601280051818405 -0.033093763087316014 -0.044661044374126525 0.02429881329262507 4.776717552076031 -0.008195840169733359 0.008357697415174637 0.047341838670005 0.04428464755720857 -0.021057921851203275 -0.03132680644377941 0.01086219594185763 -0.024082849741831034 -5.581931861495039 -0.02894829111172558 0.0032613167658382303 -6.713035593865457 0.0015172696674528683 -0.04835383824393953 -6.676411786662362 0.028970566361062336 0.012270393394533743 -0.006485140731427817 0.04835845575042171 -0.03059027111997369 8.06289667338594 3.527214923351315 -19.18435183497636 -0.02087892445024927 10.39931281730997 -0.026163848437014452 -5.655801161807777 -15.61075140613448 3.159202201652221 -0.04292164108856137 -0.031458335133809495 0.006905054369263166 0.023086018062462094 4.697322617962756 -0.019403690261898098 12.41798246079959 -8.212777248154755 6.871117302234739 0.04050053889322867 46.37786489530461 -0.0031914777024503634 -4.303925614607269 -14.758703330310226 -3.8105629149948954 0.011420399309810288 -0.03698930108613999 0.04872142633195902 0.019107876373574962 -10.721033083389324 -0.005130799800600368 
-0.036819687394881104 0.04063595272716506 -0.041288360820152484 -0.0029006892318214224 0.0024880381965539785 0.02516026357642359 -3.4538110707114753 7.355575294973493 -0.7062892630592712 -0.6015685726876268 3.0546225400479217 0.34057145531592314 -0.7817923273201017 0.3763335389662175 -2.019878578868922 -0.09924550288996194 0.452403464025507 -1.1331308029379774 -0.555826373064433 8.814294360398677 0.3063198374191444 -0.21930374027450172 -0.8005822123472288 -1.4405523605526724 -0.3612642695327013 -14.540195411664763 -0.04286884082471159 4.248704916101923 -0.19001713832084124 -10.495296745816834 70.62712715961509 -5.83705586853321 31.423596103861087 45.13039061267256 16.447007320635816 102.26557304512185 21.26653466959504 0.012728104062312395 -12.897651429288752 4.506656181495648 -0.15563090974422555 -1.5632420360897912 -0.0035867932749405335 -0.03202723025338641 -56.244062789116235 -0.048176245609753816 0.025934628764765284 -56.22662012474558 -38.7890394510422 -0.029413054912248965 0.02603974753770881 0.020817336608583432 -0.03573642159846813 -0.009771261594445508 -0.0186740769844479 -0.04227960716355635 0.012043449974363768 -36.69324495696605 0.018323868518107935 0.02525312684953624 0.007872431500474833 -0.015450946570134098 -0.030437364259827248 -0.044265748321955296 0.019875826805173462 0.022291967404371407 -19.775106921569392 -0.04742670020465043 -0.03118471837493394 -0.0291316321891946 -0.02122006803465273 -0.04100103220886297 -0.018940548639002356 0.03682641943325887 -0.044045678767871035 24.043491530500084 0.017972905743554313 0.0025609380753399465 28.90713302759519 0.02162453609201205 0.0073248886256763466 28.882215182387018 -0.016243356670353273 0.03173910658784641 -0.9050909731665819 0.37699592914435276 8.794232955067997 -57.58933015540503 18.797901394134954 -39.06570708838762 -25.30060291029822 14.44213101685514 -99.0199378172806 -19.500493707240057 1.6525847650170384 -2.115487188633371 -0.45950726397212444 0.01950494426402384 -8.120864524563814 -0.021908978795635067 -0.01067640263398773 44.54397474064683 0.019468261948161748 0.025246867195315416 44.605263602894595 12.446356453752928 0.004583079323298568 0.00825418103791126 0.007516023230360399 0.04926889827920459 -0.009309926285221589 -0.03757404495566214 0.035812674351784084 -0.03314783774671879 11.059758736063769 0.012737130997486431 0.032279269753492615 0.02942268169940226 -0.014330160806570876 0.031194073716352154 -0.0001228272431887365 -0.049795333116819294 -0.049166724736418574 4.8077650940308905 0.029332500984090452 -0.012180144424721834 0.04665983277654554 -0.0023288659155869034 -1.1104891563950606e-05 0.040864948020649466 0.006276111777927896 0.011706380663905397 -5.6030265451588885 0.0061449635736604636 0.015818999912035638 -6.722014758552437 -0.010092729298149862 -0.04840366689769241 -6.733557907359369 -0.03487368745323577 -0.044628955095168774 -0.02347469344839484 -0.015372988007038263 -0.004026923202867497 8.038306666662693 3.5160690274091184 -19.205038811327878 0.03113026585861636 10.361672419668466 -0.004164975781402149 -5.655912218984518 -15.696470123583381 3.1504102939040566 0.04881892413479506 -0.03252647874675965 0.03444368621400336 -0.008234280721900172 4.736582593357869 0.018859741667326638 12.43819259900813 -8.28524419734445 6.834688560838951 0.04258790680619679 46.40871739263541 0.032075718988538726 -4.343764533704242 -14.757010188694494 -3.857504212182294 0.03327944729185831 0.041853594090257 0.02580494544583547 -0.025117508159426673 -10.75096504244077 0.013636750255627262 
0.003920136054204065 0.007848952738649917 -0.004670497475232373 -0.012283326538371516 0.009494339432587602 -0.03531662638080226 -3.392291637573409 7.340574713249415 -0.7231519588055595 -0.6316408807595938 3.0968482845494982 0.3404453205241939 -0.7834043064131897 0.39547895147685386 -2.123156451096151 0.014401802595759728 0.4442912711112741 -1.0638104425541524 -0.5546561816096353 8.724050103447622 0.22250476703857408 -0.22461570726370297 -0.7837738531119176 -1.476912348393981 -0.3494048003911713 -14.566433303957554 -0.06677061102069494 4.556906298156427 -0.32389726830508697 -10.622405594612758 70.02530711109456 -4.12371210905385 30.049276262373663 47.14633703382455 16.338564428840687 101.8062749190896 21.466536748414395 0.07687941572206616 -13.190280807143045 4.540408605486257 -0.1327505021924183 -1.612229893157664 -0.029994791178075873 0.02099081989085211 -56.275305272795 -0.040699704987161064 -0.01655693105272041 -56.262844038386476 -38.7960406821248 -0.023574393484693364 -0.014504761242883149 0.02155247595227522 -0.010750663876805901 0.0388130481721275 0.008534087767196778 -0.04400739926406298 0.007213804837258333 -36.74104869506266 0.00030224230152606056 -0.007598714807110157 0.03974873199264394 0.02537019583513557 0.0063543412397666435 0.0011485198359673975 -0.02297221160556449 -0.009151533995212404 -19.712588478614776 0.049727445802263445 -0.003463615851970373 -0.013065913934352308 0.005520479020220026 0.007386893700956862 -0.0037761810099617215 0.04599972009485778 0.0208251694182288 24.00590794437756 -0.01808721082655955 -0.008228603153174474 28.901890386402815 -0.03609119778609722 -0.04217345944221226 28.845327555726268 0.013128600761909684 0.027513647368716247 -1.1444919882079094 0.2943302003916498 8.814673988488636 -56.26342379030146 20.642285141702526 -38.849162775743864 -24.21153833092925 14.42281600913831 -98.16741293729145 -20.451187012900277 1.826692160737669 -2.258705860513506 -0.4612965754400689 0.04118633544703474 -8.133619593457999 0.008785996743980687 0.0062032475534259755 44.60972868993951 -0.029377859600278885 -0.04705697653753619 44.55323972433948 12.454028020457269 -0.010088633278603518 0.013534066851249795 -0.0026561470157097553 0.0024450662968210413 -0.003954193173140536 0.03150198831659524 0.001116740673660607 0.0016846384773119756 11.137254806816163 0.04289236329440282 -0.021294954478142784 0.0016331542489848277 0.02271939903239775 0.0107246536184938 -0.032801768242331775 0.04480792558037647 0.006969257670561298 4.735963771303649 0.015055162194725236 -0.035754858697951954 -0.04298205603243312 0.024871512713837945 -0.03964159635348397 0.046705531105010835 0.02794193053494988 -0.013719832346853146 -5.6132978826025965 -0.00568335845995647 -0.015934300037744386 -6.722303061654484 -0.04084777864622513 0.03752688617300814 -6.689385475592153 -0.010685915349180059 0.017623744629045725 -0.008516551310421432 0.024564963009689866 0.014558904850117859 7.9978069277601165 3.4958912251362193 -19.25485536270999 -0.02207940195418747 10.352595681378016 -2.1748743307438423e-06 -5.658800212855377 -15.649536728700362 3.1593936337916086 0.02732833871480111 0.01730768452697018 -0.04744285119248618 -0.039769257015042914 4.69490664693145 0.00874600547697319 12.466585920791834 -8.287198990256073 6.846962690462031 0.006252292310266941 46.41263881674944 -0.0307329832548223 -4.330445178656778 -14.730634733864077 -3.7938442333394833 -0.035068772738177684 -0.0374033022600211 -0.007885100926605533 0.02969804121026603 -10.699091686157782 -0.021806155087936464 
